# xmcd
#
# Track frame offsets: 
#        150
#        16878
#        35748
#        54874
#        72603
#        86877
#        104146
#        119663
#        133879
#        152617
#        169474
#        187676
#
# Disc length: 2723 seconds
#
# Revision: 2
# Processed by: cddbd v1.5.2PL0 Copyright (c) Steve Scherf et al.
# Submitted via: ExactAudioCopy v0.99pb4
#
DISCID=ae0aa10c
DTITLE=Jakub Smolik - Jen blazen zarli
DYEAR=1997
DGENRE=Country
TTITLE0=Sen kovboju
TTITLE1=Navrat domu
TTITLE2=Ziva laska
TTITLE3=Lasko stuj pri mne
TTITLE4=Vse je pryc
TTITLE5=Ma Jenny
TTITLE6=Tatuv sen
TTITLE7=Popelky
TTITLE8=Jen blazen zarli
TTITLE9=Dnes rano spim
TTITLE10=Madony
TTITLE11=Stary chlapi ty to znaj
EXTD=YEAR: 1997
EXTT0=
EXTT1=
EXTT2=
EXTT3=
EXTT4=
EXTT5=
EXTT6=
EXTT7=
EXTT8=
EXTT9=
EXTT10=
EXTT11=
PLAYORDER=
